<svg xmlns="http://www.w3.org/2000/svg" width="680" height="400" viewBox="0 0 680 400" font-family="-apple-system, BlinkMacSystemFont, 'Segoe UI', Roboto, Helvetica, Arial, sans-serif">
  <rect x="0" y="0" width="680" height="400" fill="#ffffff"/>
  <polygon points="90,320 90,110 250,60 430,120 430,320" fill="#E6F1FB" stroke="#185FA5" stroke-width="1"/>
  <circle cx="130" cy="290" r="4" fill="#1D9E75"/><circle cx="190" cy="290" r="4" fill="#1D9E75"/><circle cx="250" cy="290" r="4" fill="#1D9E75"/><circle cx="310" cy="290" r="4" fill="#1D9E75"/><circle cx="370" cy="290" r="4" fill="#1D9E75"/>
  <circle cx="130" cy="230" r="4" fill="#1D9E75"/><circle cx="190" cy="230" r="4" fill="#1D9E75"/><circle cx="250" cy="230" r="4" fill="#1D9E75"/><circle cx="310" cy="230" r="4" fill="#1D9E75"/><circle cx="370" cy="230" r="4" fill="#1D9E75"/>
  <circle cx="130" cy="170" r="4" fill="#1D9E75"/><circle cx="190" cy="170" r="4" fill="#1D9E75"/><circle cx="250" cy="170" r="4" fill="#1D9E75"/><circle cx="310" cy="170" r="4" fill="#1D9E75"/>
  <circle cx="250" cy="66" r="6" fill="#E24B4A" stroke="#791F1F" stroke-width="1"/>
  <line x1="150" y1="40" x2="410" y2="150" stroke="#E24B4A" stroke-width="1.5" stroke-dasharray="6 5"/>
  <text x="250" y="360" text-anchor="middle" fill="#185FA5" font-size="12">Blue region = all fraction-allowed answers (the easy LP)</text>
  <text x="250" y="378" text-anchor="middle" fill="#0F6E56" font-size="12">Green dots = valid whole-number answers</text>
  <text x="470" y="66" fill="#791F1F" font-size="14" font-weight="500">Fractional</text>
  <text x="470" y="82" fill="#791F1F" font-size="14" font-weight="500">LP optimum</text>
  <line x1="466" y1="70" x2="262" y2="66" stroke="#73726c" stroke-width="0.5" stroke-dasharray="3 3"/>
  <text x="470" y="150" fill="#A32D2D" font-size="14" font-weight="500">The cut (scissors)</text>
  <text x="470" y="168" fill="#A32D2D" font-size="12">slices off the red dot,</text>
  <text x="470" y="184" fill="#A32D2D" font-size="12">keeps every green dot</text>
</svg>
